# AST/ASF file generated using VICON BodyLanguage
# -----------------------------------------------
:version 1.10
:name VICON
:units
  mass 1.0
  length 0.45
  angle deg
:documentation
   .ast/.asf automatically generated from VICON data using
   VICON BodyBuilder and BodyLanguage model FoxedUp or BRILLIANT.MOD
:root
   order TX TY TZ RX RY RZ
   axis XYZ
   position 0 0 0  
   orientation 0 0 0 
:bonedata
  begin
     id 1 
     name lhipjoint
     direction 0.734343 -0.627749 0.258209 
     length 2.5437 
     axis 0 0 0  XYZ
  end
  begin
     id 2 
     name lfemur
     direction 0.34202 -0.939693 0  
     length 6.7391  
     axis 0 0 20  XYZ
    dof rx ry rz
    limits (-160.0 20.0)
           (-70.0 70.0)
           (-60.0 70.0)
  end
  begin
     id 3 
     name ltibia
     direction 0.34202 -0.939693 0   
     length 7.21536   
     axis 0 0 20   XYZ
    dof rx
    limits (-10.0 170.0)
  end
  begin
     id 4 
     name lfoot
     direction 0.0489572 -0.134509 0.989702   
     length 1.61313   
     axis -90 7.62852e-016 20   XYZ
    dof rx rz
    limits (-45.0 90.0)
           (-70.0 20.0)
  end
  begin
     id 5 
     name ltoes
     direction 1.53451e-011 -4.21692e-011 1   
     length 0.823104   
     axis -90 7.62852e-016 20   XYZ
    dof rx
    limits (-90.0 20.0)
  end
  begin
     id 6 
     name rhipjoint
     direction -0.746398 -0.615468 0.253157   
     length 2.59446  
     axis 0 0 0  XYZ 
  end
  begin
     id 7 
     name rfemur
     direction -0.34202 -0.939693 0   
     length 6.7075   
     axis 0 0 -20   XYZ
    dof rx ry rz
    limits (-160.0 20.0)
           (-70.0 70.0)
           (-70.0 60.0)
  end
  begin
     id 8 
     name rtibia
     direction -0.34202 -0.939693 0   
     length 7.27262   
     axis 0 0 -20   XYZ
    dof rx
    limits (-10.0 170.0)
 end
 begin
     id 9 
     name rfoot
     direction -0.0455203 -0.125066 0.991104   
     length 1.91095  
     axis -90 -7.62852e-016 -20   XYZ
    dof rx rz
    limits (-45.0 90.0)
           (-20.0 70.0)
  end
  begin
     id 10 
     name rtoes
     direction -1.53601e-011 -4.21913e-011 1   
     length 0.969037   
     axis -90 -7.62852e-016 -20   XYZ
    dof rx
    limits (-90.0 20.0)
  end
  begin
     id 11 
     name lowerback
     direction 0.0181546 0.999122 -0.0377542   
     length 1.99916   
     axis 0 0 0   XYZ
    dof rx ry rz
    limits (-20.0 45.0)
           (-30.0 30.0)
           (-30.0 30.0)
  end
  begin
     id 12 
     name upperback
     direction 0.0203486 0.99589 0.0882534   
     length 1.951   
     axis 0 0 0   XYZ
    dof rx ry rz
    limits (-20.0 45.0)
           (-30.0 30.0)
           (-30.0 30.0)
  end
  begin
     id 13 
     name thorax
     direction 0.0131685 0.994241 0.106355   
     length 1.97461   
     axis 0 0 0   XYZ
    dof rx ry rz
    limits (-20.0 45.0)
           (-30.0 30.0)
           (-30.0 30.0)
  end
  begin
     id 14 
     name lowerneck
     direction -0.0281395 0.999325 0.023617   
     length 1.7959   
     axis 0 0 0   XYZ
    dof rx ry rz
    limits (-20.0 45.0)
           (-30.0 30.0)
           (-30.0 30.0)
  end
  begin
     id 15 
     name upperneck
     direction 0.0288721 0.991984 -0.123019   
     length 1.79917   
     axis 0 0 0   XYZ
    dof rx ry rz
    limits (-20.0 45.0)
           (-30.0 30.0)
           (-30.0 30.0)
  end
  begin
     id 16
     name head
     direction 0.0133797 0.998944 -0.0439492  
     length 1.80902  
     axis 0 0 0   XYZ
    dof rx ry rz
    limits (-20.0 45.0)
           (-30.0 30.0)
           (-30.0 30.0)
  end
  begin
     id 17 
     name lclavicle
     direction 0.919195 0.377107 0.113449  
     length 3.17815  
     axis 0 0 0   XYZ
    dof ry rz
    limits (-20.0 10.0)
           (0.0 20.0)
  end
  begin
     id 18 
     name lhumerus
     direction 1 -4.48959e-011 2.13129e-027   
     length 4.84137   
     axis 180 -30 -90   XYZ
    dof rx ry rz
    limits (-60.0 90.0)
           (-90.0 90.0)
           (-90.0 90.0)
  end
  begin
     id 19
     name lradius
     direction 1 -4.48957e-011 -6.30627e-028   
     length 3.2452   
     axis 180 -30 -90   XYZ
    dof rx
    limits (-10.0 170.0)
  end
  begin
     id 20
     name lwrist
     direction 1 -4.4901e-011 9.13299e-027   
     length 1.6226   
     axis -6.84618e-015 90 90   XYZ
    dof ry
    limits (-180.0 0.0)
 end
  begin
     id 21 
     name lhand
     direction 1 -4.48816e-011 1.82293e-026   
     length 0.521221   
     axis -1.16502e-014 90 90   XYZ
    dof rx rz
    limits (-90.0 90.0)
           (-45.0 45.0)
  end
  begin
     id 22 
     name lfingers
     direction 1 -4.49108e-011 3.65687e-026   
     length 0.420221   
     axis -2.33008e-014 90 90   XYZ
    dof rx
    limits (0.0 90.0)
  end
  begin
     id 23
     name lthumb
     direction 0.707107 -6.34943e-011 0.707107   
     length 0.603356   
     axis -90 45 5.69224e-014   XYZ
    dof rx rz
    limits (-45.0 45.0)
           (-45.0 45.0)
  end
  begin
     id 24 
     name rclavicle
     direction -0.90847 0.38596 0.160368   
     length 3.12973  
     axis 0 0 0   XYZ 
    dof ry rz
    limits (-10.0 20.0)
           (-20.0 0.0)
  end
  begin
     id 25 
     name rhumerus
     direction -1 -4.48974e-011 4.47268e-028  
     length 4.72284   
     axis 180 30 90   XYZ
    dof rx ry rz
    limits (-90.0 60.0)
           (-90.0 90.0)
           (-90.0 90.0)
  end
  begin
     id 26 
     name rradius
     direction -1 -4.48969e-011 3.43203e-027   
     length 3.23459   
     axis 180 30 90   XYZ
    dof rx
    limits (-10.0 170.0)
  end
  begin
     id 27 
     name rwrist
     direction -1 -4.48969e-011 9.12911e-027   
     length 1.6173   
     axis -6.84618e-015 -90 -90   XYZ
    dof ry
    limits (-180.0 0.0)
  end
  begin
     id 28
     name rhand
     direction -1 -4.49194e-011 1.83006e-026   
     length 0.307416   
     axis -1.16502e-014 -90 -90   XYZ
    dof rx rz
    limits (-90.0 90.0)
           (-45.0 45.0)
  end
  begin
     id 29
     name rfingers
     direction -1 -4.48423e-011 3.63103e-026   
     length 0.247847   
     axis -2.33008e-014 -90 -90   XYZ
    dof rx
    limits (0.0 90.0)
  end
  begin
     id 30
     name rthumb
     direction -0.707107 -6.34802e-011 0.707107   
     length 0.35586   
     axis -90 -45 -5.69224e-014   XYZ
    dof rx rz
    limits (-45.0 45.0)
           (-45.0 45.0)
  end
:hierarchy
  begin
    root lhipjoint rhipjoint lowerback
    lhipjoint lfemur
    lfemur ltibia
    ltibia lfoot
    lfoot ltoes
    rhipjoint rfemur
    rfemur rtibia
    rtibia rfoot
    rfoot rtoes
    lowerback upperback
    upperback thorax
    thorax lowerneck lclavicle rclavicle
    lowerneck upperneck
    upperneck head
    lclavicle lhumerus
    lhumerus lradius
    lradius lwrist
    lwrist lhand lthumb
    lhand lfingers
    rclavicle rhumerus
    rhumerus rradius
    rradius rwrist
    rwrist rhand rthumb
    rhand rfingers
  end

#!OML:ASF H:\Terrain\Patient Classification 1\Animal1\Tuesday\Animal1.ASF
:FULLY-SPECIFIED
:DEGREES
258
root 18.1015 15.8972 -24.0302 14.1384 -37.0066 5.03742
lowerback 8.27741 -0.414261 0.0382996
upperback 3.31949 -0.593399 -0.714782
thorax -1.21651 -0.305879 -0.703057
lowerneck 0.167849 5.83509 -5.89878
upperneck -17.148 7.91102 2.17754
head -5.52856 4.06744 1.25528
rclavicle -7.15625e-014 -1.39149e-014
rhumerus 5.88416 17.1894 -86.8838
rradius 110.777
rwrist 18.3852
rhand 5.51903 1.358
rfingers 7.12502
rthumb 30.8649 -26.0691
lclavicle -7.15625e-014 -1.39149e-014
lhumerus -17.0726 -4.57942 89.5704
lradius 108.361
lwrist -54.4275
lhand 19.0806 45.6148
lfingers 7.12502
lthumb 43.6776 69.6169
rfemur -43.0503 -1.36014 21.8546
rtibia 64.1859
rfoot 1.5434 -6.67001
rtoes -5.6413
lfemur -39.24 -1.70655 -23.4466
ltibia 35.6028
lfoot -13.0021 2.88826
ltoes -12.4612
259
root 18.0845 15.9017 -23.9578 13.9418 -37.488 5.05239
lowerback 8.52794 -0.378657 -0.0307753
upperback 3.35064 -0.555027 -0.760884
thorax -1.32182 -0.287744 -0.713718
lowerneck 0.184998 5.87528 -5.8064
upperneck -17.1453 7.97313 2.20236
head -5.53011 4.08986 1.24419
rclavicle -1.11319e-013 5.12864e-014
rhumerus 5.92833 17.2773 -86.8499
rradius 110.771
rwrist 18.4099
rhand 4.9616 1.30335
rfingers 7.12502
rthumb 30.3333 -26.223
lclavicle -1.11319e-013 5.12864e-014
lhumerus -17.3805 -4.80324 89.494
lradius 108.486
lwrist -54.4009
lhand 18.7757 45.7584
lfingers 7.12502
lthumb 43.3929 69.864
rfemur -44.3479 -2.31385 21.8672
rtibia 66.2367
rfoot 3.40598 -4.66275
rtoes -5.60149
lfemur -38.4579 -1.48484 -23.7224
ltibia 35.1326
lfoot -13.5139 3.07721
ltoes -8.56714
260
root 18.0656 15.898 -23.8878 14.0151 -37.9438 4.69105
lowerback 8.71724 -0.307411 0.249258
upperback 3.40389 -0.440758 -0.785995
thorax -1.37181 -0.229803 -0.907121
lowerneck -0.0373318 5.89146 -5.54185
upperneck -16.9453 8.01676 2.20272
head -5.42009 4.09646 1.20993
rclavicle -2.08724e-014 -1.19271e-014
rhumerus 6.15979 17.1798 -86.8689
rradius 110.825
rwrist 17.7737
rhand 5.43473 0.811901
rfingers 7.12502
rthumb 30.7845 -26.6304
lclavicle -2.08724e-014 -1.19271e-014
lhumerus -17.4249 -5.07529 89.4225
lradius 108.432
lwrist -54.2929
lhand 18.7929 45.3567
lfingers 7.12502
lthumb 43.409 69.4565
rfemur -45.5397 -3.08594 22.2458
rtibia 68.08
rfoot 4.7852 -2.69322
rtoes -12.7245
lfemur -37.7889 -1.15185 -23.6959
ltibia 34.7717
lfoot -13.7256 3.73125
ltoes -8.97949
261
root 18.0447 15.8941 -23.8228 14.1405 -38.3419 4.40612
lowerback 8.95022 -0.278684 0.415436
upperback 3.34695 -0.389939 -0.796761
thorax -1.55905 -0.204472 -1.01556
lowerneck -0.229648 5.95468 -5.29866
upperneck -16.7013 8.11402 2.16225
head -5.30327 4.13339 1.16323
rclavicle -2.00773e-014 -1.59028e-014
rhumerus 6.34604 17.2432 -86.8272
rradius 110.992
rwrist 17.2746
rhand 5.89185 -0.476448
rfingers 7.12502
rthumb 31.2203 -27.8357
lclavicle -2.00773e-014 -1.59028e-014
lhumerus -17.2857 -5.18335 89.273
lradius 108.256
lwrist -54.2598
lhand 18.6442 44.3603
lfingers 7.12502
lthumb 43.27 68.5102
rfemur -46.8896 -3.83495 22.587
rtibia 69.8894
rfoot 5.41044 -0.953282
rtoes -16.8151
lfemur -37.3342 -0.847967 -23.7073
ltibia 34.6038
lfoot -13.9799 4.45212
ltoes -11.4434
262
root 18.024 15.9099 -23.7638 14.065 -38.6848 4.43047
lowerback 9.34936 -0.294945 0.307889
upperback 3.21029 -0.422502 -0.845062
thorax -1.92043 -0.222379 -0.999605
lowerneck -0.202772 6.02365 -5.08228
upperneck -16.5954 8.20453 2.09054
head -5.26595 4.16867 1.10246
rclavicle 3.56818e-014 1.94809e-014
rhumerus 6.23218 17.4897 -86.6743
rradius 111.275
rwrist 17.2575
rhand 5.27321 -1.87509
rfingers 7.12502
rthumb 30.6305 -29.3463
lclavicle 3.56818e-014 1.94809e-014
lhumerus -17.3577 -5.31512 89.0583
lradius 108.298
lwrist -54.2704
lhand 18.3801 43.9176
lfingers 7.12502
lthumb 43.0232 68.1553
rfemur -48.2862 -4.54551 22.6331
rtibia 71.6144
rfoot 5.54957 -0.477248
rtoes -13.7564
lfemur -36.9613 -0.76965 -23.8793
ltibia 34.5783
lfoot -14.1582 5.13885
ltoes -13.2139
263
root 18.0031 15.907 -23.7091 13.9156 -38.9487 4.60383
lowerback 9.59451 -0.361868 0.0202293
upperback 3.20019 -0.539466 -0.866571
thorax -2.06585 -0.281777 -0.845868
lowerneck -0.163936 6.09138 -4.99014
upperneck -16.7609 8.29433 2.04603
head -5.32164 4.20826 1.06558
rclavicle -4.09496e-014 1.45113e-014
rhumerus 6.32471 17.6813 -86.534
rradius 111.276
rwrist 17.6204
rhand 5.05033 -1.83016
rfingers 7.12502
rthumb 30.418 -29.3409
lclavicle -4.09496e-014 1.45113e-014
lhumerus -17.2547 -5.40364 88.9382
lradius 108.344
lwrist -54.3065
lhand 18.9331 43.7917
lfingers 7.12502
lthumb 43.5399 67.8441
rfemur -49.7068 -5.24619 22.6062
rtibia 73.2082
rfoot 5.07138 -1.02161
rtoes -12.0395
lfemur -36.7631 -0.754719 -24.1347
ltibia 34.7299
lfoot -14.3433 5.77819
ltoes -14.4521
264
root 17.9783 15.8917 -23.6576 13.881 -39.1675 4.70697
lowerback 9.68354 -0.436664 -0.247093
upperback 3.21067 -0.663804 -0.848299
thorax -2.10274 -0.344309 -0.662053
lowerneck -0.0546279 6.16804 -4.97994
upperneck -17.0705 8.40004 2.05629
head -5.44071 4.25596 1.05296
rclavicle 2.95195e-014 -1.0138e-014
rhumerus 6.4171 17.794 -86.4888
rradius 111.158
rwrist 17.8715
rhand 5.12031 -0.914979
rfingers 7.12502
rthumb 30.4847 -28.4134
lclavicle 2.95195e-014 -1.0138e-014
lhumerus -16.9629 -5.50156 88.8596
lradius 108.243
lwrist -54.1666
lhand 19.9351 42.9952
lfingers 7.12502
lthumb 44.4746 66.6988
rfemur -51.0191 -5.82792 22.6895
rtibia 74.4293
rfoot 4.4609 -1.89592
rtoes -12.7516
lfemur -36.754 -0.579429 -24.3492
ltibia 35.0056
lfoot -14.5449 6.08393
ltoes -14.9604
265
root 17.9496 15.8728 -23.6065 13.8758 -39.3879 4.80466
lowerback 9.79117 -0.471505 -0.538848
upperback 3.16524 -0.738436 -0.838065
thorax -2.20597 -0.38168 -0.47775
lowerneck -0.111026 6.2336 -4.84295
upperneck -17.0813 8.49538 2.03857
head -5.43122 4.29504 1.02238
rclavicle 4.00551e-014 1.88845e-014
rhumerus 6.26202 17.9561 -86.461
rradius 111.345
rwrist 17.8061
rhand 4.69301 -1.33062
rfingers 7.12502
rthumb 30.0771 -28.9039
lclavicle 4.00551e-014 1.88845e-014
lhumerus -16.8374 -5.74668 88.7048
lradius 108.361
lwrist -53.7326
lhand 20.4745 42.9384
lfingers 7.12502
lthumb 44.9768 66.4471
rfemur -52.2273 -6.24178 22.7293
rtibia 75.2746
rfoot 4.2588 -2.86664
rtoes -10.4815
lfemur -36.8958 -0.382852 -24.5258
ltibia 35.4969
lfoot -14.7505 6.04348
ltoes -14.2904
266
root 17.9166 15.8572 -23.5516 13.9044 -39.566 4.94344
lowerback 9.76717 -0.534302 -0.867248
upperback 3.13439 -0.851672 -0.813269
thorax -2.22008 -0.438046 -0.254534
lowerneck -0.292222 6.32287 -4.77561
upperneck -16.9089 8.62586 2.0476
head -5.34918 4.35603 1.01645
rclavicle -8.3092e-014 4.17448e-015
rhumerus 6.33483 17.9961 -86.5233
rradius 111.49
rwrist 17.9673
rhand 5.04124 -1.94129
rfingers 7.12502
rthumb 30.4093 -29.4537
lclavicle -8.3092e-014 4.17448e-015
lhumerus -16.9594 -5.86125 88.8438
lradius 108.637
lwrist -53.675
lhand 19.7211 43.8376
lfingers 7.12502
lthumb 44.2752 67.6171
rfemur -53.4418 -6.56719 22.7301
rtibia 75.749
rfoot 4.04702 -3.94192
rtoes -7.03742
lfemur -37.104 -0.165157 -24.7417
ltibia 36.0808
lfoot -15.0389 6.01869
ltoes -15.2761
267
root 17.8801 15.8435 -23.4914 13.9757 -39.6778 4.98239
lowerback 9.62294 -0.640816 -0.985946
upperback 3.17684 -1.00073 -0.79606
thorax -2.09418 -0.512883 -0.155199
lowerneck -0.342952 6.40619 -4.80117
upperneck -16.9567 8.7455 2.07953
head -5.36274 4.41392 1.02485
rclavicle 4.26393e-014 -1.98785e-014
rhumerus 6.60867 17.5945 -86.7254
rradius 111.312
rwrist 18.6139
rhand 6.74955 -0.283699
rfingers 7.12502
rthumb 32.0373 -27.4822
lclavicle 4.26393e-014 -1.98785e-014
lhumerus -17.004 -5.86071 89.0158
lradius 108.704
lwrist -53.7535
lhand 17.8758 44.5576
lfingers 7.12502
lthumb 42.5513 68.9603
rfemur -54.5249 -6.85314 22.8566
rtibia 75.856
rfoot 3.70395 -4.89386
rtoes -6.45069
lfemur -37.2198 0.0712104 -24.9019
ltibia 36.6523
lfoot -15.4143 6.23025
ltoes -18.1028
268
root 17.8395 15.8323 -23.4291 14.0944 -39.9232 4.8051
lowerback 9.52209 -0.659631 -0.911846
upperback 3.23227 -1.01743 -0.800915
thorax -1.98267 -0.521885 -0.201781
lowerneck -0.375497 6.42808 -4.66601
upperneck -17.0117 8.77079 2.00057
head -5.36563 4.42233 0.978278
rclavicle -2.72335e-014 1.96797e-014
rhumerus 6.6916 17.2027 -86.9922
rradius 110.995
rwrist 19.2601
rhand 7.1617 1.42983
rfingers 7.12502
rthumb 32.4296 -25.689
lclavicle -2.72335e-014 1.96797e-014
lhumerus -16.7276 -5.92117 88.8251
lradius 108.502
lwrist -53.4431
lhand 16.9907 44.6643
lfingers 7.12502
lthumb 41.7221 69.3468
rfemur -55.3096 -6.89031 23.0658
rtibia 75.5599
rfoot 3.23451 -5.86733
rtoes -6.69673
lfemur -37.1614 0.390389 -24.8692
ltibia 37.1624
lfoot -15.7164 6.56982
ltoes -20.6748
269
root 17.7983 15.8256 -23.3689 14.2521 -40.2619 4.61129
lowerback 9.45221 -0.627568 -0.890189
upperback 3.25132 -0.971602 -0.777485
thorax -1.92459 -0.499561 -0.195834
lowerneck -0.499394 6.4612 -4.62176
upperneck -16.9511 8.81727 1.97765
head -5.32462 4.44468 0.967335
rclavicle 3.10601e-014 -1.88845e-015
rhumerus 6.69091 17.2999 -87.1352
rradius 110.819
rwrist 19.0864
rhand 6.16815 0.987462
rfingers 7.12502
rthumb 31.4835 -26.3207
lclavicle 3.10601e-014 -1.88845e-015
lhumerus -16.4438 -5.86809 88.7322
lradius 108.389
lwrist -53.2634
lhand 18.0013 44.0521
lfingers 7.12502
lthumb 42.6688 68.414
rfemur -55.9565 -6.68746 23.125
rtibia 74.8949
rfoot 2.51935 -6.77451
rtoes -6.42228
lfemur -37.1157 0.697473 -24.7724
ltibia 37.5798
lfoot -16.0396 6.56322
ltoes -20.255
270
root 17.7593 15.8217 -23.3096 14.4175 -40.5449 4.40145
lowerback 9.4124 -0.6376 -0.803294
upperback 3.33117 -0.976856 -0.777393
thorax -1.82154 -0.502926 -0.245136
lowerneck -0.656097 6.52116 -4.65465
upperneck -17.0826 8.92732 2.12912
head -5.35159 4.49117 1.017
rclavicle 2.13694e-014 2.88238e-014
rhumerus 6.79849 17.4337 -87.2455
rradius 110.876
rwrist 19.0105
rhand 6.02158 -0.31323
rfingers 7.12502
rthumb 31.3439 -27.6486
lclavicle 2.13694e-014 2.88238e-014
lhumerus -16.2707 -5.79039 88.7353
lradius 108.519
lwrist -53.254
lhand 19.1209 43.3911
lfingers 7.12502
lthumb 43.7153 67.3794
rfemur -56.5007 -6.51201 23.1878
rtibia 73.916
rfoot 1.90707 -7.13628
rtoes -7.25536
lfemur -37.0123 0.887161 -24.6465
ltibia 37.8647
lfoot -16.4712 6.54369
ltoes -18.2628
271
root 17.7202 15.8109 -23.2462 14.4106 -40.9376 4.35395
lowerback 9.43823 -0.616319 -0.739594
upperback 3.43241 -0.947827 -0.909741
thorax -1.73433 -0.489043 -0.421125
lowerneck -0.83285 6.53362 -4.51993
upperneck -17.2634 8.97151 2.22237
head -5.37758 4.49811 1.02609
rclavicle 3.64273e-014 -2.03754e-014
rhumerus 6.94661 17.3312 -87.5071
rradius 110.748
rwrist 19.1191
rhand 5.71153 -0.567725
rfingers 7.12502
rthumb 31.0484 -27.96
lclavicle 3.64273e-014 -2.03754e-014
lhumerus -16.0316 -5.94039 88.563
lradius 108.62
lwrist -53.023
lhand 19.1861 43.4931
lfingers 7.12502
lthumb 43.7761 67.459
rfemur -56.9002 -6.32702 23.0721
rtibia 72.7016
rfoot 1.30828 -6.86937
rtoes -10.0521
lfemur -36.6688 1.10923 -24.7514
ltibia 38.0191
lfoot -16.7159 7.41129
ltoes -20.8645
